<svg width="200" height="80" viewBox="0 0 200 80" fill="none" xmlns="http://www.w3.org/2000/svg">
  <path d="M20 25 Q25 20, 35 30 Q40 35, 42 40 L45 45 Q48 50, 50 52 L52 54" stroke="black" stroke-width="3.5" fill="none" stroke-linecap="round"/>
  <path d="M25 55 Q30 60, 40 58 Q45 57, 48 54" stroke="black" stroke-width="3.5" fill="none" stroke-linecap="round"/>
  
  <path d="M60 45 Q62 35, 68 32 Q72 30, 76 32 Q80 35, 82 45 Q83 50, 82 55 Q80 60, 76 62 Q72 64, 68 62 Q64 60, 62 55 Q60 50, 60 45 Z" fill="black"/>
  
  <path d="M90 32 L90 55 Q90 60, 95 62 Q100 63, 105 60" stroke="black" stroke-width="3.5" fill="none" stroke-linecap="round"/>
  <path d="M90 32 Q95 30, 100 32 Q105 35, 107 42" stroke="black" stroke-width="3.5" fill="none" stroke-linecap="round"/>
  
  <path d="M115 32 Q120 30, 125 32 Q130 35, 132 42 Q133 47, 132 52 Q130 58, 125 60 Q120 62, 115 60 Q110 58, 108 52 Q107 47, 108 42 Q110 35, 115 32 Z" fill="black"/>
  
  <path d="M145 32 L155 55 L165 32" stroke="black" stroke-width="3.5" fill="none" stroke-linecap="round" stroke-linejoin="round"/>
  
  <ellipse cx="177" cy="44" rx="10" ry="14" fill="none" stroke="black" stroke-width="3.5"/>
  
  <path d="M15 22 Q18 18, 25 22 Q30 25, 35 32" stroke="black" stroke-width="2.5" fill="none" stroke-linecap="round"/>
  <path d="M180 60 Q185 63, 190 58" stroke="black" stroke-width="2.5" fill="none" stroke-linecap="round"/>
</svg>

